<mxfile host="app.diagrams.net" modified="2022-05-13T06:59:29.528Z" agent="5.0 (Macintosh; Intel Mac OS X 10_15_7) AppleWebKit/605.1.15 (KHTML, like Gecko) Version/15.4 Safari/605.1.15" etag="5vgWvEoeooqSqPdfeT8c" version="17.5.0" type="github">
  <diagram id="FnRWKJ-VHBaL-HlcA0ck" name="Page-1">
    <mxGraphModel dx="1426" dy="736" grid="1" gridSize="10" guides="1" tooltips="1" connect="1" arrows="1" fold="1" page="1" pageScale="1" pageWidth="827" pageHeight="1169" math="0" shadow="0">
      <root>
        <mxCell id="0" />
        <mxCell id="1" parent="0" />
        <mxCell id="hMCrXXmojqtJtSpddtb2-1" value="" style="rounded=0;whiteSpace=wrap;html=1;" vertex="1" parent="1">
          <mxGeometry x="210" y="975" width="560" height="380" as="geometry" />
        </mxCell>
        <mxCell id="5EVXFQeWeOqnL-yEGrli-1" value="Packet&lt;br&gt;Receiver" style="rounded=0;whiteSpace=wrap;html=1;" parent="1" vertex="1">
          <mxGeometry x="240" y="1000" width="120" height="330" as="geometry" />
        </mxCell>
        <mxCell id="5EVXFQeWeOqnL-yEGrli-16" style="edgeStyle=orthogonalEdgeStyle;rounded=0;orthogonalLoop=1;jettySize=auto;html=1;entryX=0;entryY=0.5;entryDx=0;entryDy=0;" parent="1" source="5EVXFQeWeOqnL-yEGrli-2" target="5EVXFQeWeOqnL-yEGrli-5" edge="1">
          <mxGeometry relative="1" as="geometry" />
        </mxCell>
        <mxCell id="5EVXFQeWeOqnL-yEGrli-2" value="FIFO_1" style="rounded=1;whiteSpace=wrap;html=1;" parent="1" vertex="1">
          <mxGeometry x="450" y="1000" width="120" height="60" as="geometry" />
        </mxCell>
        <mxCell id="5EVXFQeWeOqnL-yEGrli-17" style="edgeStyle=orthogonalEdgeStyle;rounded=0;orthogonalLoop=1;jettySize=auto;html=1;entryX=0;entryY=0.5;entryDx=0;entryDy=0;" parent="1" source="5EVXFQeWeOqnL-yEGrli-3" target="5EVXFQeWeOqnL-yEGrli-6" edge="1">
          <mxGeometry relative="1" as="geometry" />
        </mxCell>
        <mxCell id="5EVXFQeWeOqnL-yEGrli-3" value="FIFO_2" style="rounded=1;whiteSpace=wrap;html=1;" parent="1" vertex="1">
          <mxGeometry x="450" y="1125" width="120" height="60" as="geometry" />
        </mxCell>
        <mxCell id="5EVXFQeWeOqnL-yEGrli-18" style="edgeStyle=orthogonalEdgeStyle;rounded=0;orthogonalLoop=1;jettySize=auto;html=1;entryX=0;entryY=0.5;entryDx=0;entryDy=0;" parent="1" source="5EVXFQeWeOqnL-yEGrli-4" target="5EVXFQeWeOqnL-yEGrli-7" edge="1">
          <mxGeometry relative="1" as="geometry">
            <mxPoint x="690" y="1290" as="targetPoint" />
          </mxGeometry>
        </mxCell>
        <mxCell id="5EVXFQeWeOqnL-yEGrli-4" value="FIFO_3" style="rounded=1;whiteSpace=wrap;html=1;" parent="1" vertex="1">
          <mxGeometry x="450" y="1260" width="120" height="60" as="geometry" />
        </mxCell>
        <mxCell id="5EVXFQeWeOqnL-yEGrli-5" value="Sender_1" style="rounded=0;whiteSpace=wrap;html=1;" parent="1" vertex="1">
          <mxGeometry x="617" y="1000" width="120" height="60" as="geometry" />
        </mxCell>
        <mxCell id="5EVXFQeWeOqnL-yEGrli-6" value="Sender_2" style="rounded=0;whiteSpace=wrap;html=1;" parent="1" vertex="1">
          <mxGeometry x="617" y="1125" width="120" height="60" as="geometry" />
        </mxCell>
        <mxCell id="5EVXFQeWeOqnL-yEGrli-7" value="Sender_3" style="rounded=0;whiteSpace=wrap;html=1;" parent="1" vertex="1">
          <mxGeometry x="617" y="1260" width="120" height="60" as="geometry" />
        </mxCell>
        <mxCell id="5EVXFQeWeOqnL-yEGrli-12" value="" style="shape=flexArrow;endArrow=classic;html=1;rounded=0;width=13;endSize=7.49;" parent="1" edge="1">
          <mxGeometry width="50" height="50" relative="1" as="geometry">
            <mxPoint x="360" y="1030" as="sourcePoint" />
            <mxPoint x="440" y="1030" as="targetPoint" />
            <Array as="points" />
          </mxGeometry>
        </mxCell>
        <mxCell id="5EVXFQeWeOqnL-yEGrli-14" value="" style="shape=flexArrow;endArrow=classic;html=1;rounded=0;width=13;endSize=7.49;" parent="1" edge="1">
          <mxGeometry width="50" height="50" relative="1" as="geometry">
            <mxPoint x="360" y="1155" as="sourcePoint" />
            <mxPoint x="440" y="1154.5" as="targetPoint" />
            <Array as="points">
              <mxPoint x="360" y="1154.5" />
            </Array>
          </mxGeometry>
        </mxCell>
        <mxCell id="5EVXFQeWeOqnL-yEGrli-15" value="" style="shape=flexArrow;endArrow=classic;html=1;rounded=0;width=13;endSize=7.49;" parent="1" edge="1">
          <mxGeometry width="50" height="50" relative="1" as="geometry">
            <mxPoint x="360" y="1290" as="sourcePoint" />
            <mxPoint x="440" y="1289.5" as="targetPoint" />
            <Array as="points">
              <mxPoint x="360" y="1289.5" />
            </Array>
          </mxGeometry>
        </mxCell>
        <mxCell id="5EVXFQeWeOqnL-yEGrli-19" value="" style="endArrow=classic;html=1;rounded=0;" parent="1" edge="1">
          <mxGeometry width="50" height="50" relative="1" as="geometry">
            <mxPoint x="130" y="1050" as="sourcePoint" />
            <mxPoint x="200" y="1050" as="targetPoint" />
          </mxGeometry>
        </mxCell>
        <mxCell id="5EVXFQeWeOqnL-yEGrli-20" value="packet_valid_i" style="text;html=1;strokeColor=none;fillColor=none;align=center;verticalAlign=middle;whiteSpace=wrap;rounded=0;" parent="1" vertex="1">
          <mxGeometry x="50" y="1030" width="60" height="30" as="geometry" />
        </mxCell>
        <mxCell id="5EVXFQeWeOqnL-yEGrli-21" value="" style="shape=flexArrow;endArrow=classic;html=1;rounded=0;width=13;endSize=7.49;" parent="1" edge="1">
          <mxGeometry width="50" height="50" relative="1" as="geometry">
            <mxPoint x="130" y="1090" as="sourcePoint" />
            <mxPoint x="210" y="1090" as="targetPoint" />
            <Array as="points" />
          </mxGeometry>
        </mxCell>
        <mxCell id="5EVXFQeWeOqnL-yEGrli-22" value="packet_in" style="text;html=1;strokeColor=none;fillColor=none;align=center;verticalAlign=middle;whiteSpace=wrap;rounded=0;" parent="1" vertex="1">
          <mxGeometry x="60" y="1070" width="60" height="30" as="geometry" />
        </mxCell>
        <mxCell id="5EVXFQeWeOqnL-yEGrli-23" value="" style="endArrow=classic;html=1;rounded=0;" parent="1" edge="1">
          <mxGeometry width="50" height="50" relative="1" as="geometry">
            <mxPoint x="210" y="1140" as="sourcePoint" />
            <mxPoint x="140" y="1140" as="targetPoint" />
          </mxGeometry>
        </mxCell>
        <mxCell id="5EVXFQeWeOqnL-yEGrli-24" value="stop_packet_send" style="text;html=1;strokeColor=none;fillColor=none;align=center;verticalAlign=middle;whiteSpace=wrap;rounded=0;" parent="1" vertex="1">
          <mxGeometry x="60" y="1125" width="60" height="30" as="geometry" />
        </mxCell>
        <mxCell id="5EVXFQeWeOqnL-yEGrli-25" value="" style="endArrow=classic;html=1;rounded=0;" parent="1" edge="1">
          <mxGeometry width="50" height="50" relative="1" as="geometry">
            <mxPoint x="140" y="1250" as="sourcePoint" />
            <mxPoint x="210" y="1250" as="targetPoint" />
          </mxGeometry>
        </mxCell>
        <mxCell id="5EVXFQeWeOqnL-yEGrli-26" value="" style="endArrow=classic;html=1;rounded=0;" parent="1" edge="1">
          <mxGeometry width="50" height="50" relative="1" as="geometry">
            <mxPoint x="140" y="1280" as="sourcePoint" />
            <mxPoint x="210" y="1280" as="targetPoint" />
          </mxGeometry>
        </mxCell>
        <mxCell id="5EVXFQeWeOqnL-yEGrli-27" value="" style="endArrow=classic;html=1;rounded=0;" parent="1" edge="1">
          <mxGeometry width="50" height="50" relative="1" as="geometry">
            <mxPoint x="140" y="1310" as="sourcePoint" />
            <mxPoint x="210" y="1310" as="targetPoint" />
          </mxGeometry>
        </mxCell>
        <mxCell id="5EVXFQeWeOqnL-yEGrli-28" value="rst" style="text;html=1;strokeColor=none;fillColor=none;align=center;verticalAlign=middle;whiteSpace=wrap;rounded=0;" parent="1" vertex="1">
          <mxGeometry x="100" y="1230" width="60" height="30" as="geometry" />
        </mxCell>
        <mxCell id="5EVXFQeWeOqnL-yEGrli-29" value="clk1" style="text;html=1;strokeColor=none;fillColor=none;align=center;verticalAlign=middle;whiteSpace=wrap;rounded=0;" parent="1" vertex="1">
          <mxGeometry x="100" y="1260" width="60" height="30" as="geometry" />
        </mxCell>
        <mxCell id="5EVXFQeWeOqnL-yEGrli-30" value="clk2" style="text;html=1;strokeColor=none;fillColor=none;align=center;verticalAlign=middle;whiteSpace=wrap;rounded=0;" parent="1" vertex="1">
          <mxGeometry x="100" y="1290" width="60" height="30" as="geometry" />
        </mxCell>
        <mxCell id="5EVXFQeWeOqnL-yEGrli-31" value="" style="endArrow=classic;html=1;rounded=0;" parent="1" edge="1">
          <mxGeometry width="50" height="50" relative="1" as="geometry">
            <mxPoint x="770" y="1014.5" as="sourcePoint" />
            <mxPoint x="840" y="1014.5" as="targetPoint" />
          </mxGeometry>
        </mxCell>
        <mxCell id="5EVXFQeWeOqnL-yEGrli-33" value="" style="endArrow=classic;html=1;rounded=0;" parent="1" edge="1">
          <mxGeometry width="50" height="50" relative="1" as="geometry">
            <mxPoint x="770" y="1040" as="sourcePoint" />
            <mxPoint x="840" y="1040" as="targetPoint" />
          </mxGeometry>
        </mxCell>
        <mxCell id="5EVXFQeWeOqnL-yEGrli-34" value="packet_valid_o1" style="text;html=1;strokeColor=none;fillColor=none;align=center;verticalAlign=middle;whiteSpace=wrap;rounded=0;" parent="1" vertex="1">
          <mxGeometry x="840" y="1000" width="100" height="30" as="geometry" />
        </mxCell>
        <mxCell id="5EVXFQeWeOqnL-yEGrli-35" value="packet_out1" style="text;html=1;strokeColor=none;fillColor=none;align=center;verticalAlign=middle;whiteSpace=wrap;rounded=0;" parent="1" vertex="1">
          <mxGeometry x="850" y="1030" width="60" height="30" as="geometry" />
        </mxCell>
        <mxCell id="5EVXFQeWeOqnL-yEGrli-36" value="" style="endArrow=classic;html=1;rounded=0;" parent="1" edge="1">
          <mxGeometry width="50" height="50" relative="1" as="geometry">
            <mxPoint x="770" y="1140" as="sourcePoint" />
            <mxPoint x="840" y="1140" as="targetPoint" />
            <Array as="points">
              <mxPoint x="810" y="1140" />
            </Array>
          </mxGeometry>
        </mxCell>
        <mxCell id="5EVXFQeWeOqnL-yEGrli-37" value="" style="endArrow=classic;html=1;rounded=0;" parent="1" edge="1">
          <mxGeometry width="50" height="50" relative="1" as="geometry">
            <mxPoint x="770" y="1170" as="sourcePoint" />
            <mxPoint x="840" y="1170" as="targetPoint" />
            <Array as="points">
              <mxPoint x="810" y="1170" />
            </Array>
          </mxGeometry>
        </mxCell>
        <mxCell id="5EVXFQeWeOqnL-yEGrli-38" value="" style="endArrow=classic;html=1;rounded=0;" parent="1" edge="1">
          <mxGeometry width="50" height="50" relative="1" as="geometry">
            <mxPoint x="770" y="1274.5" as="sourcePoint" />
            <mxPoint x="840" y="1274.5" as="targetPoint" />
            <Array as="points">
              <mxPoint x="810" y="1274.5" />
            </Array>
          </mxGeometry>
        </mxCell>
        <mxCell id="5EVXFQeWeOqnL-yEGrli-39" value="" style="endArrow=classic;html=1;rounded=0;" parent="1" edge="1">
          <mxGeometry width="50" height="50" relative="1" as="geometry">
            <mxPoint x="770" y="1300" as="sourcePoint" />
            <mxPoint x="840" y="1300" as="targetPoint" />
            <Array as="points">
              <mxPoint x="810" y="1300" />
            </Array>
          </mxGeometry>
        </mxCell>
        <mxCell id="5EVXFQeWeOqnL-yEGrli-40" value="packet_valid_o2" style="text;html=1;strokeColor=none;fillColor=none;align=center;verticalAlign=middle;whiteSpace=wrap;rounded=0;" parent="1" vertex="1">
          <mxGeometry x="840" y="1125" width="100" height="30" as="geometry" />
        </mxCell>
        <mxCell id="5EVXFQeWeOqnL-yEGrli-41" value="packet_out2" style="text;html=1;strokeColor=none;fillColor=none;align=center;verticalAlign=middle;whiteSpace=wrap;rounded=0;" parent="1" vertex="1">
          <mxGeometry x="850" y="1155" width="60" height="30" as="geometry" />
        </mxCell>
        <mxCell id="5EVXFQeWeOqnL-yEGrli-42" value="packet_valid_o3" style="text;html=1;strokeColor=none;fillColor=none;align=center;verticalAlign=middle;whiteSpace=wrap;rounded=0;" parent="1" vertex="1">
          <mxGeometry x="840" y="1260" width="100" height="30" as="geometry" />
        </mxCell>
        <mxCell id="5EVXFQeWeOqnL-yEGrli-43" value="&lt;span style=&quot;color: rgb(0 , 0 , 0) ; font-family: &amp;#34;helvetica&amp;#34; ; font-size: 12px ; font-style: normal ; font-weight: 400 ; letter-spacing: normal ; text-align: center ; text-indent: 0px ; text-transform: none ; word-spacing: 0px ; background-color: rgb(248 , 249 , 250) ; text-decoration: none ; display: inline ; float: none&quot;&gt;packet_out3&lt;/span&gt;" style="text;whiteSpace=wrap;html=1;" parent="1" vertex="1">
          <mxGeometry x="845" y="1290" width="90" height="30" as="geometry" />
        </mxCell>
      </root>
    </mxGraphModel>
  </diagram>
</mxfile>
